<svg width="40" height="40" viewBox="0 0 40 40" fill="none" xmlns="http://www.w3.org/2000/svg">
<g clip-path="url(#clip0_2025_109)">
<path d="M19.9833 39.9896C30.9631 39.9896 39.8638 31.0878 39.8638 20.1069C39.8638 9.12606 30.9631 0.224487 19.9833 0.224487C9.00387 0.224487 0.102783 9.12631 0.102783 20.1067C0.102783 31.0875 9.00363 39.9893 19.9833 39.9893V39.9896Z" fill="white"/>
<path d="M20.5261 3.67201C20.5399 3.44947 20.7069 3.28244 20.9295 3.29626C21.1522 3.31032 21.3018 3.49456 21.2914 3.71371C21.2773 3.9365 21.1071 4.10353 20.8878 4.08947C20.6652 4.07904 20.512 3.8948 20.5261 3.67201ZM23.1314 2.70135L24.8465 3.09795L24.7212 3.63371L23.6497 3.38329L23.5629 3.76244L23.8446 3.82862C24.3525 3.94692 24.7525 4.2182 24.6238 4.77165C24.4916 5.34547 24.0116 5.45335 23.5108 5.33844L22.5714 5.11929L23.1314 2.70135ZM23.5629 4.83759C23.8099 4.89335 23.9491 4.83395 23.9944 4.63929C24.0395 4.44438 23.9282 4.35056 23.688 4.2948L23.448 4.23904L23.3229 4.78207L23.5629 4.83759ZM26.1198 3.52244L27.5981 4.14547L27.3823 4.6531L26.5093 4.28462L26.3561 4.64268L27.1042 4.95929L26.8885 5.46717L26.1406 5.1508L25.9665 5.56123L26.8744 5.94377L26.6589 6.45189L25.1421 5.81189L26.1198 3.52244ZM28.7775 4.75395L29.327 5.11589L28.8191 5.89165L29.4419 6.29892L29.9498 5.52317L30.4994 5.88486L29.1358 7.9651L28.5862 7.60341L29.1253 6.77892L28.5025 6.37165L27.9634 7.19638L27.4138 6.83468L28.7775 4.75395ZM31.536 6.7268L32.7047 7.82959L32.3256 8.22959L31.6368 7.57892L31.369 7.86426L31.9602 8.4211L31.5811 8.82111L30.9932 8.2645L30.6873 8.58789L31.4039 9.26644L31.0245 9.66644L29.8279 8.53577L31.536 6.7268ZM34.0928 9.39856L34.4267 9.85432L32.3464 11.3816L32.0126 10.9258L34.0928 9.39856ZM32.4473 9.32195C32.983 8.92874 33.5013 9.12729 33.9328 9.71153L34.0788 9.91007C34.5103 10.4943 34.545 11.0475 34.0092 11.4441C33.4737 11.8373 32.9447 11.6495 32.5135 11.0616L32.3673 10.8633C31.936 10.2788 31.9118 9.71856 32.4473 9.32195ZM32.9309 10.8213C33.1154 11.0754 33.3622 11.1624 33.6441 10.9537C33.9292 10.745 33.905 10.4943 33.7205 10.2439L33.5118 9.95856C33.3275 9.70474 33.0943 9.61068 32.8092 9.81941C32.5239 10.0281 32.5343 10.2856 32.7222 10.5396L32.9309 10.8213ZM35.5678 11.7818L35.8669 12.3697L33.6509 13.5004L33.3518 12.9123L35.5678 11.7818ZM36.0269 14.1474L35.8111 13.5283L36.3295 13.3472L36.9801 15.2085L36.4618 15.3893L36.2461 14.7702L34.4196 15.4102L34.2041 14.791L36.0269 14.1474ZM37.2722 16.3428L37.3731 16.9862L36.6635 17.0977C36.361 17.1462 35.9816 17.1498 35.7139 17.1603L35.7173 17.1741L36.3052 17.3236L37.4844 17.696L37.5922 18.385L35.1365 18.7675L35.0354 18.1239L35.7452 18.0126C36.0478 17.9641 36.4095 17.9641 36.6948 17.9501L36.6914 17.936L36.1069 17.7864L34.9207 17.4143L34.8128 16.7253L37.2722 16.3428ZM36.4165 20.6359C36.639 20.6463 36.8061 20.8167 36.7922 21.0393C36.7782 21.2621 36.5973 21.4116 36.3748 21.4012C36.152 21.3908 35.9852 21.2204 35.999 20.9976C36.0128 20.775 36.1939 20.6218 36.4165 20.6359ZM37.3905 23.2347L36.9939 24.9498L36.4582 24.8245L36.7052 23.753L36.3261 23.666L36.2599 23.9479C36.1416 24.4558 35.8703 24.8558 35.3173 24.727C34.7433 24.5949 34.6354 24.1149 34.7503 23.6138L34.9658 22.6744L37.3905 23.2347ZM35.2545 23.6662C35.199 23.913 35.2582 24.0521 35.4528 24.0975C35.6478 24.1426 35.7416 24.0313 35.7973 23.7913L35.8528 23.5513L35.3103 23.426L35.2545 23.6662ZM36.5695 26.2301L35.9469 27.7086L35.439 27.4929L35.8078 26.6196L35.4495 26.4667L35.1328 27.2146L34.625 26.9988L34.9416 26.2509L34.5311 26.0769L34.1484 26.985L33.6405 26.7692L34.2805 25.2524L36.5695 26.2301ZM35.3486 28.8776L34.9903 29.4308L34.2145 28.9229L33.8075 29.5455L34.5833 30.05L34.225 30.6032L32.1413 29.2429L32.4996 28.6897L33.3275 29.2289L33.7345 28.6063L32.9064 28.0669L33.2647 27.5137L35.3486 28.8776ZM33.3692 31.6538L32.2664 32.8228L31.8664 32.4436L32.5168 31.7547L32.2318 31.4868L31.6751 32.0749L31.2751 31.6955L31.8318 31.1043L31.5081 30.7981L30.8298 31.5147L30.4298 31.1355L31.5602 29.9387L33.3692 31.6538ZM30.7741 32.5653C31.1673 33.1011 30.969 33.6194 30.3845 34.0509L30.1862 34.1971C29.6017 34.6284 29.0487 34.6633 28.6521 34.1273C28.2555 33.5915 28.4468 33.0628 29.0347 32.6315L29.233 32.4853C29.8175 32.0538 30.3811 32.0296 30.7741 32.5653ZM30.6975 34.2075L30.2419 34.5413L28.7147 32.4609L29.1704 32.127L30.6975 34.2075ZM29.2749 33.049C29.0208 33.2332 28.9338 33.4803 29.1425 33.7622C29.3513 34.0473 29.6017 34.023 29.8524 33.8386L30.1375 33.6298C30.3915 33.4456 30.4853 33.2124 30.2766 32.927C30.0679 32.642 29.8104 32.6524 29.5566 32.8403L29.2749 33.049ZM28.3181 35.6861L27.7338 35.9852L26.5998 33.769L27.1876 33.4698L28.3181 35.6861ZM25.9527 36.1486L26.5753 35.9331L26.7564 36.4514L24.8953 37.1021L24.7142 36.5835L25.337 36.368L24.697 34.5413L25.3195 34.3258L25.9527 36.1486ZM23.7648 37.3942L23.121 37.495L23.0097 36.7855C22.9612 36.4827 22.9576 36.1035 22.9471 35.8357H22.9333L22.7871 36.4235L22.415 37.6063L21.7261 37.7142L21.3401 35.2582L21.9835 35.1571L22.095 35.8669C22.1435 36.1697 22.1435 36.5314 22.1576 36.8167L22.1714 36.8131L22.321 36.2289L22.6931 35.0424L23.3821 34.9346L23.7648 37.3942ZM19.5588 36.5418C19.5486 36.7644 19.3782 36.9314 19.1588 36.921C18.9362 36.9106 18.7867 36.7263 18.7971 36.5035C18.8075 36.281 18.9779 36.114 19.1971 36.1244C19.4162 36.1382 19.5692 36.3227 19.5588 36.5418ZM16.7935 37.5055L15.0785 37.1021L15.2036 36.5663L16.2751 36.8201L16.3656 36.441L16.0839 36.3748C15.5758 36.2565 15.1794 35.9818 15.3081 35.4286C15.4439 34.8546 15.9239 34.7467 16.4247 34.865L17.3639 35.0841L16.7935 37.5055ZM16.3692 35.3661C16.1219 35.3069 15.9828 35.3695 15.9377 35.5644C15.8924 35.759 16.0036 35.8531 16.2402 35.9123L16.4802 35.9678L16.609 35.425L16.3692 35.3661ZM13.7983 36.6706L12.32 36.041L12.5358 35.5329L13.4087 35.9052L13.5617 35.5469L12.8175 35.2303L13.0332 34.7224L13.7775 35.0388L13.9515 34.6318L13.0434 34.2456L13.2591 33.7377L14.7724 34.3813L13.7983 36.6706ZM11.1547 35.439L10.6048 35.0771L11.1127 34.305L10.4936 33.8977L9.98569 34.6701L9.43612 34.3084L10.8034 32.2313L11.3527 32.5932L10.8102 33.4177L11.4293 33.8247L11.9721 33.0003L12.5217 33.362L11.1547 35.439ZM8.38909 33.456L7.22375 32.3462L7.60291 31.9462L8.29139 32.6003L8.55951 32.3183L7.97163 31.7583L8.35078 31.3581L8.93866 31.9183L9.24484 31.5947L8.52824 30.9127L8.90739 30.5127L10.1006 31.6468L8.38909 33.456ZM5.84606 30.7702L5.51224 30.3144L7.59588 28.794L7.92969 29.2497L5.84606 30.7702ZM7.4846 30.8502C6.94885 31.2434 6.43054 31.0415 6.00266 30.4536L5.85648 30.2553C5.4286 29.6674 5.39394 29.1142 5.92945 28.7244C6.46885 28.3314 6.99394 28.5227 7.42521 29.1106L7.57139 29.3089C8.00291 29.897 8.02375 30.457 7.4846 30.8502ZM7.008 29.3542C6.82375 29.1001 6.58012 29.0133 6.29478 29.2221C6.00945 29.4308 6.03054 29.6778 6.21818 29.9317L6.42715 30.217C6.61139 30.471 6.84436 30.5649 7.1263 30.3595C7.41139 30.1508 7.40097 29.8933 7.21672 29.6395L7.008 29.3542ZM4.37454 28.3835L4.07539 27.7956L6.29478 26.6718L6.59394 27.2599L4.37454 28.3835ZM3.91903 26.018L4.13478 26.6405L3.61285 26.8216L2.96557 24.9569L3.48751 24.7758L3.70327 25.3986L5.53309 24.7653L5.74885 25.3881L3.91903 26.018ZM2.68412 23.826L2.58666 23.1823L3.29963 23.0747C3.60242 23.0293 3.98157 23.0257 4.24945 23.0153L4.24582 22.9981L3.65794 22.8485L2.47878 22.4727L2.37454 21.7838L4.83369 21.408L4.93115 22.0516L4.22157 22.1595C3.91903 22.2049 3.55369 22.2083 3.26836 22.2187L3.272 22.2327L3.85624 22.3823L5.04242 22.7581L5.14666 23.4468L2.68412 23.826ZM3.56072 19.3799C3.33794 19.3658 3.17454 19.192 3.18836 18.9726C3.20242 18.7501 3.39006 18.6041 3.60921 18.618C3.832 18.6318 3.99539 18.8058 3.98157 19.025C3.96751 19.2478 3.77988 19.3971 3.56072 19.3799ZM2.66666 16.4994L3.11175 14.7944L3.64412 14.9336L3.36581 16.0017L3.74497 16.0992L3.81794 15.8172C3.9503 15.313 4.23539 14.9198 4.78157 15.0623C5.35224 15.2119 5.44606 15.6955 5.31733 16.193L5.07394 17.1253L2.66666 16.4994ZM4.81285 16.127C4.87563 15.8834 4.82012 15.7409 4.62497 15.6921C4.4303 15.6434 4.33285 15.7513 4.2703 15.9879L4.20775 16.2245L4.74691 16.367L4.81285 16.127ZM3.57091 13.5317L4.23539 12.0706L4.73648 12.2965L4.34327 13.1595L4.69818 13.3195L5.03224 12.5818L5.53309 12.808L5.19903 13.5455L5.60266 13.7297L6.00969 12.8323L6.51054 13.0584L5.8286 14.5544L3.57115 13.5314L3.57091 13.5317ZM4.86521 10.912L5.24097 10.369L6.00266 10.8946L6.42351 10.2822L5.66181 9.75686L6.03757 9.21407L8.08291 10.6301L7.70715 11.1729L6.89672 10.6129L6.47563 11.225L7.2863 11.785L6.91054 12.328L4.86521 10.912ZM6.91054 8.20171L8.0446 7.06401L8.43418 7.45383L7.76266 8.12535L8.04121 8.40001L8.61503 7.82595L9.00485 8.21577L8.43078 8.78959L8.74375 9.1028L9.43951 8.40341L9.82909 8.79323L8.66739 9.95856L6.91054 8.20171ZM9.53333 7.36001C9.15418 6.81359 9.36654 6.30232 9.96121 5.88486L10.1631 5.74571C10.7615 5.33165 11.3147 5.30717 11.6936 5.85698C12.073 6.40317 11.871 6.9285 11.2727 7.34256L11.071 7.48171C10.4761 7.89917 9.91272 7.90595 9.53333 7.35977V7.36001ZM9.65163 5.72123L10.1178 5.39759L11.5927 7.51638L11.1268 7.84001L9.65163 5.72123ZM11.0431 6.91444C11.3006 6.73359 11.3947 6.49359 11.1927 6.20486C10.991 5.91613 10.7406 5.92995 10.4831 6.1108L10.1944 6.31274C9.93697 6.49359 9.83612 6.71977 10.0378 7.01189C10.2395 7.30062 10.497 7.29723 10.7544 7.11977L11.0431 6.91444ZM12.0764 4.30547L12.6713 4.01989L13.7428 6.26401L13.1479 6.54935L12.0764 4.30547ZM14.4594 3.90523L13.8332 4.10692L13.6659 3.58159L15.5481 2.98329L15.7151 3.50862L15.089 3.70692L15.6768 5.5508L15.0507 5.7491L14.4594 3.90523ZM16.6715 2.72244L17.3152 2.6388L17.4092 3.35201C17.4473 3.6548 17.4439 4.03395 17.4473 4.30523L17.4613 4.30183L17.6247 3.71735L18.0284 2.54498L18.7205 2.45456L19.0405 4.92098L18.3971 5.00462L18.303 4.29141C18.265 3.98862 18.2718 3.62329 18.265 3.3382L18.2509 3.34159L18.0875 3.92268L17.6839 5.09844L16.9918 5.18886L16.6718 2.7222L16.6715 2.72244Z" fill="black"/>
<path d="M22.081 9.10302C21.2878 7.19271 18.5813 7.19271 17.7884 9.10302C17.2664 10.3588 15.7811 10.9016 14.5707 10.2717C12.7338 9.31853 10.664 11.0579 11.2834 13.0305C11.6902 14.3282 10.9004 15.6991 9.57188 15.9947C7.55418 16.4436 7.08461 19.1086 8.82739 20.2182C9.97527 20.9488 10.2502 22.5074 9.42206 23.5893C8.16291 25.2315 9.51612 27.5728 11.5685 27.305C12.9183 27.1275 14.1321 28.1435 14.1915 29.5037C14.2819 31.5704 16.8247 32.4957 18.223 30.9719C19.145 29.9699 20.7278 29.9699 21.6461 30.9719C23.0446 32.4957 25.5874 31.5704 25.6778 29.5037C25.737 28.1435 26.951 27.1275 28.3008 27.305C30.3532 27.5728 31.703 25.2315 30.447 23.5896C29.6192 22.5074 29.8941 20.9522 31.0419 20.2182C32.7847 19.105 32.3152 16.4436 30.2975 15.9947C28.9687 15.6989 28.1755 14.3282 28.5859 13.0305C29.2053 11.0579 27.1355 9.31853 25.2987 10.2717C24.0882 10.8979 22.6029 10.359 22.081 9.10302Z" fill="#5BFC70"/>
</g>
<defs>
<clipPath id="clip0_2025_109">
<rect width="40" height="40" fill="white"/>
</clipPath>
</defs>
</svg>
