<svg viewBox="0 0 16 16" fill="none" xmlns="http://www.w3.org/2000/svg">
<path d="M0.292515 0.292527C-0.0980098 0.683051 -0.0980098 1.31622 0.292515 1.70674L6.58576 7.99999L0.292496 14.2933C-0.0980282 14.6838 -0.0980275 15.3169 0.292497 15.7075C0.683021 16.098 1.31619 16.098 1.70671 15.7075L7.99998 9.4142L14.2932 15.7075C14.6838 16.098 15.3169 16.098 15.7074 15.7075C16.098 15.3169 16.098 14.6838 15.7074 14.2932L9.41419 7.99999L15.7074 1.70676C16.0979 1.31624 16.0979 0.683075 15.7074 0.292551C15.3169 -0.0979729 14.6837 -0.0979726 14.2932 0.292552L7.99998 6.58578L1.70673 0.292527C1.3162 -0.0979972 0.683039 -0.0979974 0.292515 0.292527Z" fill="currentColor"/>
</svg>
